<?xml version="1.0" encoding="UTF-8"?>
<svg width="35px" height="30px" viewBox="0 0 35 30" version="1.1" xmlns="http://www.w3.org/2000/svg" xmlns:xlink="http://www.w3.org/1999/xlink">
    <!-- Generator: Sketch 52.6 (67491) - http://www.bohemiancoding.com/sketch -->
    <title>camera</title>
    <desc>Created with Sketch.</desc>
    <g id="camera" stroke="none" stroke-width="1" fill="none" fill-rule="evenodd">
        <g id="noun_Camera_858877" fill="#3E4C97" fill-rule="nonzero">
            <path d="M17.3214286,11.780625 C14.3303571,11.780625 11.905,14.3265 11.905,17.467875 C11.905,20.60925 14.3303571,23.1555 17.3214286,23.1555 C20.3132143,23.1555 22.7378571,20.60925 22.7378571,17.467875 C22.7378571,14.3265 20.3132143,11.780625 17.3214286,11.780625 Z M27.5967857,4.242375 L25.3367857,4.242375 L24.4482143,2.055375 C23.8303571,0.382125 23.0546429,0.065625 21.9132143,0.065625 L12.7296429,0.065625 C11.5878571,0.065625 10.8128571,0.382125 10.1946429,2.055375 L9.30607143,4.242375 L7.04607143,4.242375 C1.72035714,4.242375 0.260357143,8.775375 0.260357143,14.367375 L0.260357143,19.80975 C0.260357143,25.40175 1.72035714,29.93475 7.04607143,29.93475 L27.5971429,29.93475 C32.9228571,29.93475 34.74,25.40175 34.74,19.80975 L34.74,14.367375 C34.7396429,8.775 32.9228571,4.242375 27.5967857,4.242375 Z M17.3214286,25.884375 C12.8946429,25.884375 9.30607143,22.116 9.30607143,17.467875 C9.30607143,12.81975 12.895,9.05175 17.3214286,9.05175 C21.7478571,9.05175 25.3367857,12.820125 25.3367857,17.467875 C25.3367857,22.116375 21.7482143,25.884375 17.3214286,25.884375 Z M30.9514286,11.361375 C30.0360714,11.361375 29.2939286,10.582125 29.2939286,9.621 C29.2939286,8.659875 30.0360714,7.880625 30.9514286,7.880625 C31.8671429,7.880625 32.6089286,8.659875 32.6089286,9.621 C32.6089286,10.582125 31.8675,11.361375 30.9514286,11.361375 Z" id="Shape"></path>
        </g>
    </g>
</svg>