<?xml version="1.0" encoding="UTF-8"?>
<svg width="32px" height="32px" viewBox="0 0 32 32" version="1.1" xmlns="http://www.w3.org/2000/svg" xmlns:xlink="http://www.w3.org/1999/xlink">
    <!-- Generator: Sketch 52.6 (67491) - http://www.bohemiancoding.com/sketch -->
    <title>Google +</title>
    <desc>Created with Sketch.</desc>
    <g id="Google-+" stroke="none" stroke-width="1" fill="none" fill-rule="evenodd">
        <g>
            <path d="M0,16 C0,7.16344357 7.16344357,0 16,0 C24.8365564,0 32,7.16344357 32,16 C32,24.8365564 24.8365564,32 16,32 C7.16344357,32 0,24.8365564 0,16 Z" id="back" fill="#DC4E41"></path>
            <path d="M13.0909091,15.5428571 L17.8981818,15.5428571 C17.9418182,15.7961905 17.9781818,16.0495238 17.9781818,16.3824762 C17.9781818,19.2777143 16.0290909,21.3333333 13.0909091,21.3333333 C10.2763636,21.3333333 8,19.0678095 8,16.2666667 C8,13.4655238 10.2763636,11.2 13.0909091,11.2 C14.4654545,11.2 15.6145455,11.6994286 16.5018182,12.5245714 L15.12,13.8491429 C14.7418182,13.4872381 14.08,13.0674286 13.0909091,13.0674286 C11.3527273,13.0674286 9.93454545,14.5005714 9.93454545,16.2666667 C9.93454545,18.0327619 11.3527273,19.4659048 13.0909091,19.4659048 C15.1054545,19.4659048 15.8618182,18.0255238 15.9781818,17.28 L13.0909091,17.28 L13.0909091,15.5428571 Z M24,15.5428571 L24,16.9904762 L22.5454545,16.9904762 L22.5454545,18.4380952 L21.0909091,18.4380952 L21.0909091,16.9904762 L19.6363636,16.9904762 L19.6363636,15.5428571 L21.0909091,15.5428571 L21.0909091,14.0952381 L22.5454545,14.0952381 L22.5454545,15.5428571 L24,15.5428571 Z" id="Combined-Shape" fill="#FFFFFF"></path>
        </g>
    </g>
</svg>