<?xml version="1.0" encoding="UTF-8"?>
<svg width="32px" height="32px" viewBox="0 0 32 32" version="1.1" xmlns="http://www.w3.org/2000/svg" xmlns:xlink="http://www.w3.org/1999/xlink">
    <!-- Generator: Sketch 52.6 (67491) - http://www.bohemiancoding.com/sketch -->
    <title>LinkedIN</title>
    <desc>Created with Sketch.</desc>
    <g id="LinkedIN" stroke="none" stroke-width="1" fill="none" fill-rule="evenodd">
        <g>
            <path d="M0,16 C0,7.16344357 7.16344357,0 16,0 C24.8365564,0 32,7.16344357 32,16 C32,24.8365564 24.8365564,32 16,32 C7.16344357,32 0,24.8365564 0,16 Z" id="back" fill="#0077B5"></path>
            <path d="M11.307028,13.2518989 L11.307028,24.1463732 L7.68107809,24.1463732 L7.68107809,13.2518989 L11.307028,13.2518989 Z M11.5458422,9.88179847 C11.5458422,10.9278687 10.758436,11.7648985 9.49412545,11.7648985 L9.47095366,11.7648985 C8.25363842,11.7648985 7.46666667,10.9278687 7.46666667,9.88179847 C7.46666667,8.81360217 8.27760673,8 9.51802135,8 C10.758436,8 11.5223083,8.81360217 11.5458422,9.88179847 Z M24.3835904,17.8998146 L24.3834456,24.1463732 L20.7576405,24.1463732 L20.7576405,18.3178233 C20.7576405,16.8538166 20.2329444,15.8548184 18.9203352,15.8548184 C17.91859,15.8548184 17.3219165,16.528289 17.0598581,17.1787658 C16.9639848,17.4118846 16.940451,17.7366892 16.940451,18.0622891 L16.940451,24.1466624 L13.3140666,24.1466624 C13.3140666,24.1466624 13.3618584,14.2744692 13.3140666,13.2521881 L16.940451,13.2521881 L16.940451,14.795299 C17.4217,14.053498 18.283618,12.9960755 20.2087589,12.9960755 C22.594801,12.9960755 24.3835904,14.5535033 24.3835904,17.8998146 Z" id="Shape" fill="#FFFFFF"></path>
        </g>
    </g>
</svg>