<?xml version="1.0" encoding="UTF-8"?>
<svg width="40px" height="40px" viewBox="0 0 40 40" version="1.1" xmlns="http://www.w3.org/2000/svg" xmlns:xlink="http://www.w3.org/1999/xlink">
    <!-- Generator: Sketch 52.6 (67491) - http://www.bohemiancoding.com/sketch -->
    <title>LiveChat</title>
    <desc>Created with Sketch.</desc>
    <g id="LiveChat" stroke="none" stroke-width="1" fill="none" fill-rule="evenodd">
        <circle id="Oval" fill="#00237A" cx="20" cy="20" r="20"></circle>
        <g id="Message" transform="translate(8.000000, 9.000000)" fill="#FF6B00" fill-rule="nonzero">
            <g id="Group">
                <path d="M4.6474359,19.8 L7.59615385,19.8 L9.96794872,23.3333333 C10.1923077,23.6666667 10.5128205,23.8666667 10.8974359,23.8666667 C10.8974359,23.8666667 10.8974359,23.8666667 10.8974359,23.8666667 C11.2820513,23.8666667 11.6346154,23.6666667 11.8269231,23.3333333 L14.1987179,19.8 L20.3525641,19.8 C22.9166667,19.8 25,17.6333333 25,14.9666667 L25,4.96666667 C25,2.3 22.9166667,0.133333333 20.3525641,0.133333333 L4.6474359,0.133333333 C2.08333333,0.133333333 0,2.3 0,4.96666667 L0,14.9666667 C0,17.6333333 2.08333333,19.8 4.6474359,19.8 Z M1.6025641,4.96666667 C1.6025641,3.23333333 2.98076923,1.8 4.6474359,1.8 L20.3525641,1.8 C22.0192308,1.8 23.3974359,3.23333333 23.3974359,4.96666667 L23.3974359,14.9666667 C23.3974359,16.7 22.0192308,18.1333333 20.3525641,18.1333333 L13.7820513,18.1333333 C13.525641,18.1333333 13.2692308,18.2666667 13.1410256,18.5 L10.8974359,21.8 L8.65384615,18.5 C8.49358974,18.2666667 8.26923077,18.1333333 8.01282051,18.1333333 L4.6474359,18.1333333 C2.98076923,18.1333333 1.6025641,16.7 1.6025641,14.9666667 L1.6025641,4.96666667 Z" id="Shape"></path>
            </g>
        </g>
        <path d="M15.5,16 L25,16" id="Line" stroke="#FF6B00" stroke-linecap="round" stroke-linejoin="round"></path>
        <path d="M15.5,20 L25,20" id="Line-Copy" stroke="#FF6B00" stroke-linecap="round" stroke-linejoin="round"></path>
    </g>
</svg>