<?xml version="1.0" encoding="UTF-8"?>
<svg width="32px" height="32px" viewBox="0 0 32 32" version="1.1" xmlns="http://www.w3.org/2000/svg" xmlns:xlink="http://www.w3.org/1999/xlink">
    <!-- Generator: Sketch 52.6 (67491) - http://www.bohemiancoding.com/sketch -->
    <title>Youtube</title>
    <desc>Created with Sketch.</desc>
    <g id="Youtube" stroke="none" stroke-width="1" fill="none" fill-rule="evenodd">
        <g>
            <path d="M0,16 C0,7.16344357 7.16344357,0 16,0 C24.8365564,0 32,7.16344357 32,16 C32,24.8365564 24.8365564,32 16,32 C7.16344357,32 0,24.8365564 0,16 Z" id="back" fill="#FF0000"></path>
            <path d="M24.1766788,12.0488129 C23.9804121,11.2948086 23.4020848,10.7010624 22.6677333,10.4995527 C21.3369212,10.1333333 16,10.1333333 16,10.1333333 C16,10.1333333 10.6630788,10.1333333 9.3321697,10.4995527 C8.59781818,10.7010624 8.01949091,11.2948086 7.82322424,12.0488129 C7.46666667,13.4153591 7.46666667,16.2666667 7.46666667,16.2666667 C7.46666667,16.2666667 7.46666667,19.1178753 7.82322424,20.4845204 C8.01949091,21.2385247 8.59781818,21.832271 9.3321697,22.0338796 C10.6630788,22.4 16,22.4 16,22.4 C16,22.4 21.3369212,22.4 22.6677333,22.0338796 C23.4020848,21.832271 23.9804121,21.2385247 24.1766788,20.4845204 C24.5333333,19.1178753 24.5333333,16.2666667 24.5333333,16.2666667 C24.5333333,16.2666667 24.5333333,13.4153591 24.1766788,12.0488129" id="Fill-1" fill="#FFFFFF"></path>
            <polygon id="Fill-2" fill="#FF0000" points="14.4 19.2 14.4 13.8666667 18.6666667 16.5334352"></polygon>
        </g>
    </g>
</svg>